<?xml version="1.0" ?><!DOCTYPE svg  PUBLIC '-//W3C//DTD SVG 1.1//EN'  'http://www.w3.org/Graphics/SVG/1.1/DTD/svg11.dtd'><svg enable-background="new 0 0 100 100" height="100px" id="Layer_1" version="1.1" viewBox="0 0 100 100" width="100px" xml:space="preserve" xmlns="http://www.w3.org/2000/svg" xmlns:xlink="http://www.w3.org/1999/xlink"><g><path d="M49.329,95.868c25.352,0,45.978-20.625,45.978-45.978S74.681,3.913,49.329,3.913S3.352,24.539,3.352,49.891   S23.977,95.868,49.329,95.868z M49.329,5.913c24.25,0,43.978,19.728,43.978,43.978S73.579,93.868,49.329,93.868   S5.352,74.14,5.352,49.891S25.08,5.913,49.329,5.913z"/><path d="M25.913,41.521c0.467,0,0.932-0.069,1.381-0.206c4.595-1.395,10.536-2.163,16.729-2.163   c11.324,0,21.936,2.445,29.113,6.707c0.734,0.437,1.573,0.668,2.424,0.668c1.673,0,3.241-0.893,4.093-2.33   c0.648-1.092,0.833-2.371,0.52-3.602c-0.313-1.231-1.088-2.267-2.181-2.915c-8.602-5.107-20.989-8.036-33.985-8.036   c-7.102,0-14.018,0.912-19.475,2.568c-2.507,0.762-3.929,3.423-3.169,5.933C21.966,40.134,23.837,41.521,25.913,41.521z    M25.114,34.128c5.272-1.601,11.982-2.482,18.893-2.482c12.646,0,24.662,2.827,32.964,7.755c0.633,0.375,1.082,0.975,1.263,1.688   c0.181,0.713,0.074,1.454-0.302,2.087c-0.744,1.255-2.51,1.715-3.774,0.963c-7.479-4.441-18.463-6.988-30.136-6.988   c-6.385,0-12.532,0.799-17.31,2.249c-1.428,0.434-3.008-0.426-3.436-1.834C22.837,36.113,23.661,34.57,25.114,34.128z"/><path d="M72.717,51.229c-8.026-4.933-18.799-7.761-29.558-7.761c-5.775,0-11.279,0.781-16.358,2.323   c-2.174,0.663-3.41,2.973-2.753,5.152c0.533,1.752,2.122,2.929,3.954,2.929c0.405,0,0.808-0.06,1.199-0.178   c4.186-1.271,8.983-1.942,13.873-1.942c9.355,0,18.585,2.375,25.322,6.517c0.65,0.399,1.395,0.61,2.155,0.61   c1.448,0,2.766-0.736,3.526-1.97C75.268,54.972,74.659,52.424,72.717,51.229z M72.373,55.86c-0.597,0.97-1.954,1.304-2.931,0.704   c-7.043-4.329-16.654-6.812-26.369-6.812c-5.157,0-10.02,0.683-14.453,2.028c-1.107,0.333-2.33-0.33-2.659-1.417   c-0.339-1.125,0.299-2.318,1.421-2.66c4.89-1.484,10.198-2.236,15.776-2.236c10.399,0,20.791,2.721,28.51,7.465   C72.671,53.549,72.987,54.863,72.373,55.86z"/><path d="M68.002,63.022c-7.011-4.284-15.177-6.457-24.271-6.457c-4.865,0-10.07,0.626-15.468,1.86   c-0.912,0.207-1.688,0.757-2.186,1.548c-0.499,0.792-0.658,1.732-0.45,2.646c0.365,1.603,1.768,2.722,3.412,2.722   c0.262,0,0.526-0.03,0.783-0.088c13.656-3.121,25.367-1.85,34.526,3.751c0.55,0.336,1.181,0.514,1.823,0.514   c1.232,0,2.351-0.628,2.993-1.679C70.172,66.19,69.65,64.03,68.002,63.022z M67.458,66.797c-0.419,0.686-1.376,0.923-2.066,0.501   c-6.209-3.797-13.509-5.722-21.695-5.722c-4.483,0-9.301,0.581-14.319,1.728c-0.796,0.183-1.62-0.343-1.799-1.129   c-0.09-0.393-0.021-0.796,0.192-1.136c0.213-0.338,0.545-0.574,0.938-0.663c14.971-3.422,27.941-1.948,38.251,4.354   C67.667,65.162,67.89,66.089,67.458,66.797z"/></g></svg>