<?xml version="1.0" standalone="no"?>
<!DOCTYPE svg PUBLIC "-//W3C//DTD SVG 20010904//EN"
 "http://www.w3.org/TR/2001/REC-SVG-20010904/DTD/svg10.dtd">
<svg version="1.0" xmlns="http://www.w3.org/2000/svg"
 width="300.000000pt" height="300.000000pt" viewBox="0 0 300.000000 300.000000"
 preserveAspectRatio="xMidYMid meet">
<metadata>
Created by potrace 1.10, written by Peter Selinger 2001-2011
</metadata>
<g transform="translate(0.000000,300.000000) scale(0.100000,-0.100000)"
fill="#F4F5F5" stroke="none">
<path d="M1320 2970 c-345 -48 -627 -187 -871 -430 -360 -359 -508 -863 -399
-1361 107 -493 477 -911 951 -1077 176 -62 273 -77 494 -77 223 0 292 10 471
70 219 73 410 191 574 355 174 175 284 350 359 575 59 176 75 280 75 475 0
188 -16 293 -71 460 -73 227 -181 400 -362 581 -222 222 -459 349 -760 410
-111 22 -362 33 -461 19z m350 -125 c318 -43 587 -179 806 -407 328 -341 454
-818 339 -1275 -134 -528 -566 -919 -1115 -1009 -116 -19 -366 -13 -480 11
-168 37 -336 108 -479 202 -107 71 -269 227 -344 332 -122 169 -209 377 -243
579 -24 151 -16 399 19 538 44 173 98 294 197 442 283 424 797 656 1300 587z"/>
<path d="M913 2510 c-143 -32 -192 -202 -85 -292 93 -78 227 -53 280 52 28 55
28 92 1 147 -33 68 -121 110 -196 93z"/>
<path d="M1691 2055 c-71 -20 -111 -46 -161 -102 l-40 -46 0 67 0 66 -150 0
-150 0 0 -475 0 -475 160 0 160 0 0 293 c0 284 1 294 23 337 40 80 117 110
192 74 66 -31 70 -52 73 -396 l3 -308 154 0 154 0 3 298 3 297 27 46 c56 94
172 107 232 26 20 -27 21 -43 26 -345 l5 -317 158 -3 157 -3 0 313 c0 339 -7
404 -53 495 -31 59 -93 118 -156 146 -34 15 -68 21 -131 21 -119 1 -177 -21
-254 -95 -49 -48 -62 -56 -69 -43 -62 110 -226 168 -366 129z"/>
<path d="M790 1518 c0 -478 -2 -526 -18 -558 -22 -45 -56 -62 -113 -57 l-47 4
-6 -76 c-4 -42 -9 -99 -12 -128 -7 -63 -3 -65 130 -65 202 -1 313 74 362 247
15 52 18 129 22 608 l4 547 -161 0 -161 0 0 -522z"/>
</g>
</svg>
