<?xml version="1.0" standalone="no"?>
<!DOCTYPE svg PUBLIC "-//W3C//DTD SVG 20010904//EN"
 "http://www.w3.org/TR/2001/REC-SVG-20010904/DTD/svg10.dtd">
<svg version="1.0" xmlns="http://www.w3.org/2000/svg"
 width="300.000000pt" height="300.000000pt" viewBox="0 0 300.000000 300.000000"
 preserveAspectRatio="xMidYMid meet">
<metadata>
Created by potrace 1.10, written by Peter Selinger 2001-2011
</metadata>
<g transform="translate(0.000000,300.000000) scale(0.100000,-0.100000)"
fill="#000000" stroke="none">
<path d="M1315 2969 c-339 -46 -625 -188 -865 -429 -256 -256 -400 -565 -429
-923 -35 -427 119 -853 419 -1156 207 -210 456 -347 751 -413 90 -20 131 -23
304 -23 223 0 292 10 471 70 219 73 409 190 574 355 173 173 285 352 359 575
59 176 75 280 75 475 0 187 -16 293 -70 457 -74 228 -183 403 -363 584 -222
222 -459 349 -760 410 -113 23 -362 33 -466 18z m395 -40 c302 -46 572 -176
787 -382 229 -219 373 -484 428 -786 20 -112 20 -408 0 -525 -50 -284 -188
-549 -395 -756 -211 -211 -441 -336 -738 -402 -80 -18 -130 -22 -292 -23 -169
0 -209 3 -299 23 -469 105 -820 382 -1021 805 -93 195 -131 373 -130 612 0
256 47 459 151 664 47 92 154 245 229 328 130 141 354 291 540 360 36 13 72
27 80 30 21 8 23 9 130 33 167 38 360 44 530 19z"/>
<path d="M1350 2883 c-304 -33 -603 -177 -821 -393 -198 -197 -318 -406 -386
-674 -35 -139 -43 -387 -19 -538 48 -287 183 -552 390 -760 159 -159 341 -274
546 -342 153 -51 269 -69 440 -68 131 0 172 5 334 38 55 11 201 66 281 106
393 198 675 577 749 1007 21 123 21 359 1 477 -75 426 -363 811 -754 1009 -87
43 -246 97 -356 120 -76 16 -323 27 -405 18z m398 -48 c517 -99 939 -496 1067
-1004 157 -624 -142 -1270 -720 -1552 -217 -105 -405 -145 -650 -136 -217 8
-358 43 -550 136 -137 67 -255 154 -372 274 -154 158 -249 314 -318 521 -52
156 -68 279 -62 476 4 131 10 186 30 266 44 173 98 294 197 442 218 326 573
541 976 592 94 12 301 4 402 -15z"/>
<path d="M913 2510 c-143 -32 -192 -202 -85 -292 67 -56 152 -60 225 -12 42
27 76 90 77 138 1 101 -114 189 -217 166z m94 -41 c15 -5 40 -22 56 -37 23
-22 27 -33 27 -84 0 -94 -46 -140 -140 -140 -87 0 -150 56 -150 135 0 98 108
164 207 126z"/>
<path d="M1691 2054 c-70 -19 -111 -45 -162 -102 l-41 -47 4 68 4 67 -153 0
-153 0 0 -475 0 -475 160 0 160 0 0 293 c0 284 1 294 23 337 55 110 193 123
243 23 17 -34 19 -68 22 -345 l3 -308 154 0 154 0 3 298 3 297 27 46 c34 58
82 83 145 76 24 -2 53 -13 65 -23 45 -41 48 -65 48 -389 l0 -305 160 0 160 0
0 313 c0 332 -8 404 -50 486 -32 64 -86 118 -147 148 -47 23 -69 27 -142 27
-120 1 -178 -20 -255 -95 -33 -32 -60 -58 -61 -56 0 1 -13 19 -29 40 -37 51
-94 87 -163 103 -72 17 -113 17 -182 -2z m215 -41 c35 -12 65 -33 107 -77 l58
-60 50 51 c70 72 124 96 226 101 50 3 102 -1 131 -8 59 -16 124 -68 157 -125
44 -75 50 -135 47 -468 l-3 -307 -119 0 -120 0 -1 133 c0 72 -4 209 -8 302 -6
155 -9 174 -30 209 -31 50 -75 76 -129 76 -69 0 -126 -41 -168 -120 -17 -31
-19 -65 -22 -317 l-3 -283 -125 0 -124 0 0 265 c0 310 -6 351 -60 409 -37 40
-40 41 -104 41 -72 0 -104 -16 -144 -75 -36 -53 -41 -90 -48 -372 l-7 -268
-123 0 -124 0 0 445 0 445 119 0 118 0 6 -52 c4 -28 13 -58 21 -67 13 -12 21
-8 63 36 54 56 85 77 134 91 55 16 171 14 225 -5z"/>
<path d="M790 1518 c0 -478 -2 -526 -18 -558 -22 -45 -56 -62 -113 -57 l-47 4
-6 -76 c-4 -42 -9 -99 -12 -128 -7 -63 -3 -65 131 -65 202 0 312 75 361 247
15 52 18 130 22 608 l4 547 -161 0 -161 0 0 -522z m278 -65 l-3 -558 -32 -67
c-58 -124 -147 -163 -361 -159 l-53 1 6 68 c12 137 10 132 62 132 39 0 50 5
79 35 18 20 38 52 44 73 6 23 10 223 10 535 l0 497 125 0 126 0 -3 -557z"/>
</g>
</svg>
