<?xml version="1.0" standalone="no"?>
<!DOCTYPE svg PUBLIC "-//W3C//DTD SVG 20010904//EN"
 "http://www.w3.org/TR/2001/REC-SVG-20010904/DTD/svg10.dtd">
<svg version="1.0" xmlns="http://www.w3.org/2000/svg"
 width="300.000000pt" height="300.000000pt" viewBox="0 0 300.000000 300.000000"
 preserveAspectRatio="xMidYMid meet">
<metadata>
Created by potrace 1.10, written by Peter Selinger 2001-2011
</metadata>
<g transform="translate(0.000000,300.000000) scale(0.100000,-0.100000)"
fill="#F4F5F5" stroke="none">
<path d="M913 2510 c-143 -32 -192 -202 -85 -292 93 -78 227 -53 280 52 28 55
28 92 1 147 -33 68 -121 110 -196 93z"/>
<path d="M1691 2055 c-71 -20 -111 -46 -161 -102 l-40 -46 0 67 0 66 -150 0
-150 0 0 -475 0 -475 160 0 160 0 0 293 c0 284 1 294 23 337 40 80 117 110
192 74 66 -31 70 -52 73 -396 l3 -308 154 0 154 0 3 298 3 297 27 46 c56 94
172 107 232 26 20 -27 21 -43 26 -345 l5 -317 158 -3 157 -3 0 313 c0 339 -7
404 -53 495 -31 59 -93 118 -156 146 -34 15 -68 21 -131 21 -119 1 -177 -21
-254 -95 -49 -48 -62 -56 -69 -43 -62 110 -226 168 -366 129z"/>
<path d="M790 1518 c0 -478 -2 -526 -18 -558 -22 -45 -56 -62 -113 -57 l-47 4
-6 -76 c-4 -42 -9 -99 -12 -128 -7 -63 -3 -65 130 -65 202 -1 313 74 362 247
15 52 18 129 22 608 l4 547 -161 0 -161 0 0 -522z"/>
</g>
</svg>
